<svg xmlns="http://www.w3.org/2000/svg" width="30" viewBox="0 0 30 30" height="30" version="1.0"><defs><clipPath id="a"><path d="M 0.484375 1 L 29.515625 1 L 29.515625 28 L 0.484375 28 Z M 0.484375 1"/></clipPath><clipPath id="b"><path d="M 8.222656 4.359375 L 22.011719 4.359375 L 22.011719 24.683594 L 8.222656 24.683594 Z M 8.222656 4.359375"/></clipPath></defs><g clip-path="url(#a)"><path fill="#FF5722" d="M 29.386719 14.585938 C 29.269531 14.695312 27.507812 16.441406 27.507812 18.273438 L 27.503906 18.273438 L 27.503906 23.519531 C 27.503906 25.511719 25.964844 27.136719 24.015625 27.273438 C 23.976562 27.28125 23.933594 27.28125 23.890625 27.28125 C 23.84375 27.285156 23.804688 27.285156 23.757812 27.285156 L 6.238281 27.285156 C 6.191406 27.285156 6.148438 27.28125 6.101562 27.28125 C 6.058594 27.28125 6.019531 27.273438 5.976562 27.273438 C 4.03125 27.144531 2.492188 25.511719 2.492188 23.519531 L 2.492188 18.273438 C 2.492188 16.441406 0.726562 14.695312 0.613281 14.585938 C 0.726562 14.472656 2.492188 12.726562 2.492188 10.894531 L 2.496094 10.894531 L 2.496094 5.648438 C 2.496094 3.65625 4.035156 2.03125 5.984375 1.894531 C 6.023438 1.886719 6.066406 1.886719 6.109375 1.886719 C 6.15625 1.882812 6.195312 1.882812 6.242188 1.882812 L 23.761719 1.882812 C 23.808594 1.882812 23.851562 1.886719 23.898438 1.886719 C 23.941406 1.886719 23.980469 1.894531 24.023438 1.894531 C 25.96875 2.023438 27.507812 3.65625 27.507812 5.648438 L 27.507812 10.894531 C 27.507812 12.726562 29.269531 14.472656 29.386719 14.585938"/></g><g clip-path="url(#b)"><path fill="#212121" d="M 15.691406 5.207031 C 15.691406 4.738281 15.308594 4.359375 14.832031 4.359375 C 14.355469 4.359375 13.96875 4.738281 13.96875 5.207031 L 13.96875 10.570312 C 13.96875 10.882812 13.714844 11.132812 13.394531 11.132812 C 13.078125 11.132812 12.820312 10.882812 12.820312 10.570312 L 12.820312 5.207031 C 12.820312 4.738281 12.4375 4.359375 11.960938 4.359375 C 11.484375 4.359375 11.097656 4.738281 11.097656 5.207031 L 11.097656 10.570312 C 11.097656 10.882812 10.84375 11.132812 10.527344 11.132812 C 10.207031 11.132812 9.953125 10.882812 9.953125 10.570312 L 9.953125 5.207031 C 9.953125 4.738281 9.566406 4.359375 9.089844 4.359375 C 8.613281 4.359375 8.230469 4.738281 8.230469 5.207031 L 8.230469 10.289062 C 8.230469 10.359375 8.242188 10.429688 8.257812 10.496094 C 8.242188 10.613281 8.230469 10.730469 8.230469 10.851562 C 8.230469 12.160156 9.234375 14.214844 10.527344 14.488281 L 10.527344 23.273438 C 10.527344 24.050781 11.167969 24.683594 11.960938 24.683594 C 12.753906 24.683594 13.394531 24.050781 13.394531 23.273438 L 13.394531 14.488281 C 14.6875 14.214844 15.691406 12.160156 15.691406 10.851562 C 15.691406 10.730469 15.679688 10.613281 15.664062 10.496094 C 15.679688 10.429688 15.691406 10.359375 15.691406 10.289062 Z M 20.574219 4.359375 C 20.511719 4.359375 20.457031 4.371094 20.398438 4.378906 C 20.359375 4.371094 20.324219 4.359375 20.285156 4.359375 C 19.015625 4.359375 17.414062 7.453125 17.414062 10.570312 C 17.414062 13.199219 18.148438 15.402344 19.136719 16.03125 L 19.136719 23.273438 C 19.136719 24.050781 19.78125 24.683594 20.574219 24.683594 C 21.367188 24.683594 22.007812 24.050781 22.007812 23.273438 L 22.007812 5.773438 C 22.007812 4.992188 21.367188 4.359375 20.574219 4.359375 Z M 20.574219 4.359375"/></g></svg>