<?xml version="1.0" encoding="UTF-8"?>
<!DOCTYPE svg PUBLIC "-//W3C//DTD SVG 1.1//EN" "http://www.w3.org/Graphics/SVG/1.1/DTD/svg11.dtd">
<!-- Creator: CorelDRAW 2019 (64 Bit) -->
<svg xmlns="http://www.w3.org/2000/svg" xml:space="preserve" width="338.667mm" height="338.667mm" version="1.1" style="shape-rendering:geometricPrecision; text-rendering:geometricPrecision; image-rendering:optimizeQuality; fill-rule:evenodd; clip-rule:evenodd"
viewBox="0 0 33866.66 33866.66"
 xmlns:xlink="http://www.w3.org/1999/xlink">
 <defs>
  <style type="text/css">
   <![CDATA[
    .str0 {stroke:#FEFEFE;stroke-width:20;stroke-miterlimit:22.9256}
    .fil1 {fill:#373435}
    .fil0 {fill:#373435;fill-rule:nonzero}
   ]]>
  </style>
 </defs>
 <g id="Camada_x0020_1">
  <metadata id="CorelCorpID_0Corel-Layer"/>
  <g id="_2369837420096">
   <path class="fil0" d="M11858.7 13558.47c78.8,-18.27 140.16,-14.46 184.07,11.46 43.92,25.92 72.23,66.29 84.95,121.1 20.65,89.07 12.38,174.02 -24.82,254.86 -37.21,80.84 -111.95,136.07 -224.21,165.72 -269.85,66.2 -517.86,102.07 -744.02,107.59 -121.42,566.08 -311.72,1056.97 -570.9,1472.69 -259.19,415.72 -553.22,661.72 -882.11,738 -301.47,69.93 -564.73,-37.8 -789.76,-323.15 -225.04,-285.37 -410.22,-694.59 -555.52,-1227.68 -67.3,643.78 -196.49,1141.26 -387.61,1492.45 -191.12,351.2 -432.27,560.57 -723.47,628.11 -328.89,76.28 -624.75,-70.81 -887.58,-441.27 -262.81,-370.46 -474.48,-901.71 -634.98,-1593.74 -116.81,-503.61 -200.6,-1067.22 -251.38,-1690.83 -15.75,-176.86 0.32,-306.04 48.2,-387.55 47.89,-81.5 140.35,-138.15 277.39,-169.93 102.77,-23.84 187.59,-20.05 254.44,11.38 66.86,31.43 114.2,107.09 142.01,227 5.57,23.98 12.86,71.03 21.91,141.13 60.11,726.14 147.38,1335.88 261.8,1829.22 106.47,459.06 228.11,804.51 364.91,1036.33 136.81,231.81 272.01,332.22 405.62,301.23 119.9,-27.81 235.45,-187.28 346.62,-478.42 111.19,-291.14 193.3,-703.69 246.35,-1237.67 53.05,-533.98 58.36,-1157.07 15.92,-1869.25 -9.14,-163.96 16.16,-284.45 75.91,-361.48 59.76,-77.05 153,-130.26 279.77,-159.66 106.2,-24.63 189.5,-19.59 249.9,15.15 60.41,34.72 101.33,98.33 122.79,190.83 12.71,54.81 19.22,98.43 19.52,130.85 33.59,580.68 115.15,1150.22 244.67,1708.64 88.2,380.28 171.36,680.49 249.5,900.64 78.14,220.15 167.74,380.78 268.81,481.89 101.07,101.12 221.85,135.37 362.31,102.8 164.43,-38.14 318.92,-204.84 463.44,-500.11 144.52,-295.25 257.8,-647.34 339.86,-1056.28 -239.18,-81.71 -435.91,-213.88 -590.18,-396.52 -154.27,-182.63 -262.8,-409.27 -325.57,-679.92 -62.77,-270.64 -73.85,-509.06 -33.22,-715.24 40.64,-206.18 123.02,-372.4 247.17,-498.67 124.14,-126.27 275.29,-210.06 453.44,-251.38 219.26,-50.85 411.4,-12.39 576.42,115.41 165.02,127.79 279.31,328.72 342.88,602.79 89.79,387.13 105.58,836.55 47.36,1348.26 181.87,-9.69 391,-41.95 627.39,-96.78zm-1750.76 -660.75c77.87,335.74 243.39,559.09 496.57,670.05 44.62,-414.69 37.92,-747.08 -20.08,-997.17 -33.38,-143.89 -76.66,-244.86 -129.83,-302.93 -53.19,-58.07 -112.32,-79.55 -177.41,-64.45 -92.5,21.45 -155.35,92.9 -188.56,214.32 -33.22,121.43 -26.78,281.48 19.31,480.18zm4579.57 1136.44c44.53,-10.33 84.42,2.08 119.64,37.23 35.24,35.15 61.2,88.7 77.88,160.64 31.79,137.05 23.87,250.79 -23.74,341.26 -115.48,218.12 -242.79,404.69 -381.92,559.72 -139.15,155.01 -314.92,257.16 -527.33,306.42 -174.72,40.53 -318.34,20.58 -430.84,-59.82 -112.52,-80.41 -191.03,-216.54 -235.52,-408.38 -22.25,-95.93 -38,-272.78 -47.25,-530.57 -5.52,-226.17 -17.82,-380.36 -36.89,-462.58 -12.71,-54.81 -37.91,-77.85 -75.6,-69.11 -44.54,10.33 -94.61,82.41 -150.21,216.25 -55.6,133.84 -102.66,304.51 -141.17,512 -38.53,207.49 -59.25,421.69 -62.16,642.6 -1.53,289.16 -130.76,463.55 -387.7,523.14 -102.78,23.84 -178.99,2.7 -228.62,-63.41 -49.63,-66.1 -96.69,-195.09 -141.18,-386.93 -25.43,-109.63 -43.98,-197.39 -55.66,-263.28l-90.2 -412.3c-122.37,-527.59 -195.95,-1089.96 -220.73,-1687.11 -24.78,-597.16 23.08,-1114.59 143.59,-1552.3 120.5,-437.7 328.07,-690.72 622.7,-759.06 157.59,-36.55 300.9,1.51 429.93,114.19 129.02,112.67 218.56,276.93 268.62,492.76 80.25,346.01 62.43,728.32 -53.49,1146.91 -115.91,418.6 -344.09,929.11 -684.52,1531.54 31.04,180.53 68.42,365.01 112.12,553.43 45.51,-317.42 116.4,-583.86 212.63,-799.33 96.24,-215.46 202.88,-378.29 319.93,-488.47 117.04,-110.19 232.1,-178.39 345.15,-204.61 222.68,-51.65 359.85,33.87 411.5,256.55 30.99,133.62 49.32,383.88 55,750.8 4.04,313.16 17.18,517.7 39.43,613.62 31.78,137.03 97.35,194.03 196.7,170.99 68.52,-15.89 140.16,-76.73 214.9,-182.53 74.74,-105.78 169.06,-271.16 282.95,-496.13 29.98,-57.51 70.67,-92.21 122.06,-104.13zm-2262.83 -2821.81c-61.66,14.3 -109.72,118.4 -144.17,312.32 -34.45,193.92 -52.02,448.9 -52.73,764.95 -0.7,316.06 17.6,655.69 54.91,1018.89 154.39,-299.36 266.8,-612.44 337.21,-939.25 70.43,-326.81 77.81,-610.12 22.19,-849.94 -25.42,-109.63 -56.88,-190.78 -94.37,-243.45 -37.49,-52.68 -78.5,-73.85 -123.04,-63.52zm2894.3 3910.04c-212.4,49.26 -399.87,11.51 -562.38,-113.25 -162.51,-124.77 -272.78,-312.2 -330.79,-562.29 -63.57,-274.07 -60.37,-548.28 9.57,-822.63 69.94,-274.36 192.99,-510.48 369.11,-708.37 176.13,-197.9 382.39,-324.26 618.77,-379.08 75.37,-17.48 129.28,-14.65 161.73,8.52 32.45,23.15 65.98,70.43 100.58,141.83 68.78,-30.39 142.56,-54.72 221.35,-73 167.87,-38.93 265.71,1.56 293.52,121.46 16.68,71.94 30.73,249.2 42.1,531.76 12.59,412.26 36.76,695.47 72.51,849.63 11.92,51.39 34.31,89.52 67.15,114.39 32.84,24.88 69.82,32.55 110.94,23.01 65.09,-15.09 134.15,-75.33 207.18,-180.73 73.03,-105.39 166.5,-270.56 280.38,-495.54 29.99,-57.5 70.68,-92.21 122.06,-104.12 44.54,-10.33 84.43,2.08 119.66,37.22 35.22,35.15 61.18,88.7 77.87,160.64 31.78,137.05 23.87,250.8 -23.74,341.26 -99.94,207.3 -214.8,389.18 -344.58,545.64 -129.78,156.45 -268.32,251.77 -415.63,285.94 -113.06,26.22 -225.64,11.71 -337.73,-43.52 -112.09,-55.23 -207.61,-144.09 -286.56,-266.58 -111.41,329.1 -302.42,525.04 -573.07,587.81zm64.62 -561.93c75.37,-17.48 136.98,-78.7 184.84,-183.67 47.86,-104.97 70.12,-234.68 66.78,-389.14l-29.16 -989.66c-143.1,36.8 -263.34,121.55 -360.73,254.25 -97.37,132.69 -162.17,293.03 -194.39,481.02 -32.21,187.98 -26.07,377.89 18.42,569.74 24.64,106.21 64.32,180.03 119.07,221.5 54.74,41.45 119.8,53.44 195.17,35.96zm3738.73 -1554.9c44.54,-10.33 84.43,2.08 119.65,37.23 35.23,35.15 61.19,88.7 77.88,160.64 31.78,137.04 23.87,250.79 -23.74,341.26 -105.21,215.74 -231.66,402.11 -379.36,559.12 -147.71,157 -334.61,261.73 -560.72,314.17 -698.89,162.1 -1162.36,-248.47 -1390.4,-1231.7 -34.97,-150.74 -65.18,-304.39 -90.66,-460.94l-200.42 46.49c-102.77,23.84 -176.52,21.09 -221.23,-8.26 -44.71,-29.34 -76.6,-85.12 -95.67,-167.34 -44.5,-191.86 10.32,-305.66 164.49,-341.42l292.92 -67.93c-29.16,-390.36 -19.94,-755.32 27.65,-1094.9 47.59,-339.56 134.73,-621.51 261.4,-845.84 126.68,-224.33 287.66,-359.14 482.93,-404.43 143.89,-33.37 271.64,3.78 383.27,111.47 111.62,107.69 189.67,257.46 234.17,449.31 123.16,531.01 7.76,1045.16 -346.23,1542.43l575.55 -133.49c54.81,-12.71 96.99,-9.86 126.53,8.56 29.55,18.42 51.87,60.18 66.97,125.27 54.83,236.39 -111.32,399.47 -498.46,489.26l-626.93 145.41c32.88,172.88 60.44,307.29 82.69,403.22 82.63,356.29 182.6,596.65 299.91,721.07 117.31,124.41 266.75,165.57 448.33,123.46 147.31,-34.17 267.16,-108.9 359.56,-224.2 92.39,-115.3 195.01,-279.89 307.86,-493.8 29.99,-57.5 70.68,-92.2 122.06,-104.12zm-1559.6 -2638.34c-51.39,11.91 -93.88,89.46 -127.46,232.64 -33.58,143.17 -52.22,335.22 -55.91,576.15 -3.69,240.93 7.82,504.52 34.49,790.76 161.61,-221.61 267.72,-452.89 318.32,-693.88 50.61,-240.98 55.25,-450.55 13.93,-628.7 -46.88,-202.13 -108,-294.46 -183.37,-276.97zm4940.96 1854.08c44.54,-10.33 84.43,2.08 119.65,37.23 35.23,35.15 61.19,88.7 77.88,160.64 31.78,137.04 23.87,250.79 -23.74,341.25 -105.21,215.74 -231.66,402.11 -379.36,559.13 -147.71,157 -334.61,261.72 -560.72,314.17 -698.89,162.1 -1162.36,-248.47 -1390.4,-1231.7 -34.97,-150.74 -65.18,-304.39 -90.66,-460.94l-200.42 46.48c-102.77,23.84 -176.52,21.09 -221.23,-8.26 -44.71,-29.33 -76.6,-85.12 -95.67,-167.34 -44.5,-191.85 10.33,-305.65 164.49,-341.41l292.92 -67.94c-29.16,-390.35 -19.94,-755.31 27.65,-1094.89 47.59,-339.56 134.73,-621.51 261.4,-845.84 126.68,-224.34 287.66,-359.14 482.93,-404.43 143.89,-33.38 271.64,3.78 383.27,111.46 111.62,107.7 189.68,257.47 234.17,449.31 123.16,531.02 7.76,1045.17 -346.23,1542.44l575.55 -133.5c54.81,-12.71 96.99,-9.85 126.53,8.57 29.55,18.42 51.87,60.17 66.97,125.27 54.83,236.38 -111.32,399.47 -498.46,489.26l-626.93 145.41c32.88,172.88 60.44,307.29 82.69,403.21 82.63,356.29 182.61,596.65 299.91,721.08 117.31,124.41 266.75,165.57 448.33,123.45 147.31,-34.16 267.16,-108.9 359.56,-224.19 92.39,-115.3 195.02,-279.89 307.86,-493.8 29.99,-57.5 70.68,-92.2 122.06,-104.12zm-1559.6 -2638.35c-51.39,11.92 -93.88,89.46 -127.45,232.64 -33.59,143.17 -52.23,335.22 -55.92,576.15 -3.68,240.94 7.82,504.53 34.49,790.76 161.61,-221.6 267.72,-452.89 318.32,-693.87 50.61,-240.99 55.25,-450.56 13.93,-628.71 -46.88,-202.12 -108,-294.45 -183.37,-276.97zm3807.95 1661.99c44.52,-10.33 83.95,3.99 118.26,42.96 34.31,38.98 59.42,92.72 75.31,161.25 38.14,164.44 11.11,273.6 -81.1,327.48 -188.86,119.61 -405.44,213.16 -649.72,280.65 1.66,302.88 -73.37,563.07 -225.09,780.57 -151.73,217.51 -349.22,354.47 -592.45,410.89 -205.55,47.67 -392.66,38.71 -561.3,-26.87 -168.64,-65.57 -309.72,-171.84 -423.23,-318.81 -113.51,-146.96 -192.52,-316.37 -237.02,-508.22 -60.39,-260.37 -64.54,-503.99 -12.46,-730.88 52.06,-226.88 152.16,-417.97 300.26,-573.27 148.1,-155.28 328.35,-257.56 540.75,-306.83 260.37,-60.39 491.07,-19.12 692.09,123.78 201.02,142.92 345.83,343.09 434.41,600.53 158.64,-47.62 342.55,-126.38 551.72,-236.26 25.82,-13.22 49,-22.2 69.57,-26.97zm-1440.02 1449.54c109.63,-25.43 194.36,-92.01 254.22,-199.76 59.84,-107.75 84,-248.73 72.48,-422.96 -122.89,-47.31 -226.11,-122.65 -309.65,-226.02 -83.55,-103.36 -140.42,-220.15 -170.61,-350.33 -12.71,-54.81 -20.28,-110.82 -22.72,-168.02l-25.7 5.96c-137.03,31.78 -235.65,124.15 -295.84,277.11 -60.2,152.95 -62.48,349.34 -6.87,589.14 43.71,188.43 113.91,323.78 210.61,406.05 96.7,82.26 194.73,111.88 294.08,88.83zm-10182.48 8000.95c-407.68,94.56 -779.54,102.29 -1115.6,23.18 -336.04,-79.1 -616.34,-237.01 -840.94,-473.74 -224.58,-236.73 -378.98,-536.67 -463.21,-899.81 -116.8,-503.61 -125.43,-972.73 -25.88,-1407.38 99.56,-434.66 287.23,-796.78 563.03,-1086.4 275.8,-289.6 612.4,-480.49 1009.8,-572.66 370,-85.82 672.97,-55.91 908.92,89.74 235.96,145.63 390.09,374.33 462.39,686.09 48.47,208.98 50.58,385.39 6.32,529.24 -44.25,143.83 -134.91,231.65 -271.94,263.43 -95.92,22.25 -176.46,17.46 -241.6,-14.36 -65.15,-31.83 -107.65,-90.56 -127.51,-176.21 -7.15,-30.83 -13.42,-88.95 -18.78,-174.35 -3.28,-107.54 -12.08,-192.15 -26.38,-253.81 -72.31,-311.75 -274.62,-429.1 -606.93,-352.02 -226.11,52.44 -424.85,176.15 -596.25,371.15 -171.38,194.99 -287.28,450.21 -347.69,765.68 -60.41,315.45 -44.92,670.18 46.45,1064.15 95.36,411.12 283.82,702.24 565.4,873.41 281.58,171.16 646.77,204.69 1095.56,100.6 222.69,-51.65 441.38,-132.16 656.1,-241.53 214.71,-109.36 447.31,-254.47 697.78,-435.32 46.62,-32.47 87.06,-52.68 121.32,-60.63 54.82,-12.71 100.69,-1.69 137.64,33.06 36.94,34.76 62.96,84.68 78.06,149.78 48.47,208.97 -28.82,389.36 -231.9,541.16 -218.6,162.61 -453.18,299.15 -703.74,409.62 -250.57,110.46 -494.04,193.11 -730.42,247.93zm3641.58 -2534.18c44.53,-10.33 83.95,3.98 118.26,42.96 34.32,38.97 59.42,92.72 75.31,161.24 38.14,164.44 11.11,273.61 -81.09,327.48 -188.87,119.62 -405.45,213.17 -649.72,280.66 1.65,302.87 -73.38,563.06 -225.1,780.57 -151.73,217.51 -349.21,354.47 -592.45,410.88 -205.55,47.68 -392.65,38.72 -561.3,-26.86 -168.64,-65.58 -309.72,-171.85 -423.23,-318.81 -113.51,-146.97 -192.52,-316.38 -237.01,-508.22 -60.39,-260.37 -64.54,-503.99 -12.47,-730.89 52.06,-226.88 152.16,-417.96 300.26,-573.26 148.1,-155.29 328.35,-257.57 540.76,-306.83 260.37,-60.39 491.06,-19.13 692.08,123.78 201.02,142.91 345.83,343.08 434.42,600.52 158.63,-47.62 342.54,-126.38 551.71,-236.26 25.82,-13.22 49,-22.2 69.57,-26.96zm-1440.02 1449.54c109.63,-25.43 194.37,-92.02 254.22,-199.77 59.84,-107.75 84,-248.73 72.48,-422.95 -122.89,-47.32 -226.11,-122.66 -309.65,-226.02 -83.55,-103.37 -140.41,-220.15 -170.61,-350.34 -12.71,-54.81 -20.28,-110.82 -22.72,-168.02l-25.7 5.96c-137.03,31.79 -235.65,124.16 -295.84,277.11 -60.19,152.96 -62.48,349.34 -6.86,589.15 43.7,188.43 113.91,323.77 210.6,406.04 96.7,82.26 194.73,111.88 294.08,88.84zm3757.64 -1987.09c44.52,-10.33 83.95,3.99 118.26,42.96 34.31,38.98 59.42,92.73 75.31,161.25 38.14,164.44 11.11,273.6 -81.1,327.48 -188.86,119.61 -405.44,213.17 -649.72,280.65 1.66,302.88 -73.37,563.07 -225.09,780.58 -151.73,217.5 -349.22,354.46 -592.45,410.88 -205.55,47.67 -392.65,38.72 -561.3,-26.87 -168.64,-65.57 -309.72,-171.84 -423.23,-318.81 -113.51,-146.96 -192.52,-316.37 -237.02,-508.22 -60.38,-260.36 -64.54,-503.99 -12.46,-730.88 52.06,-226.88 152.16,-417.97 300.26,-573.26 148.1,-155.29 328.35,-257.57 540.76,-306.84 260.36,-60.39 491.06,-19.12 692.08,123.78 201.02,142.92 345.83,343.09 434.42,600.53 158.63,-47.62 342.54,-126.38 551.71,-236.26 25.82,-13.22 49,-22.2 69.57,-26.97zm-1440.02 1449.54c109.63,-25.42 194.37,-92.01 254.22,-199.76 59.84,-107.75 84,-248.73 72.48,-422.95 -122.89,-47.32 -226.11,-122.66 -309.65,-226.03 -83.55,-103.36 -140.42,-220.14 -170.61,-350.33 -12.71,-54.81 -20.28,-110.82 -22.72,-168.02l-25.7 5.96c-137.03,31.78 -235.65,124.15 -295.84,277.11 -60.2,152.95 -62.48,349.34 -6.86,589.14 43.7,188.43 113.9,323.78 210.6,406.05 96.7,82.26 194.73,111.88 294.08,88.83zm4207.19 -1636.47c44.54,-10.33 84.42,2.08 119.65,37.23 35.23,35.15 61.19,88.7 77.87,160.64 31.79,137.05 23.87,250.79 -23.74,341.26 -110.46,224.19 -231.37,411.08 -362.75,560.68 -131.36,149.61 -304.97,249.44 -520.8,299.5 -263.79,61.19 -493.68,35.08 -689.66,-78.32 -195.98,-113.39 -322.97,-295.13 -380.98,-545.22 -30.98,-133.61 15.29,-245.43 138.81,-335.46 135.64,-100.05 227.47,-194.45 275.48,-283.2 48,-88.76 59.69,-186.24 35.06,-292.44 -14.3,-61.67 -37.88,-104.93 -70.72,-129.81 -32.85,-24.88 -68.11,-32.94 -105.8,-24.2 -92.49,21.46 -178.93,111.89 -259.27,271.33 -80.36,159.44 -144.07,355.63 -191.12,588.57 -47.06,232.94 -72.17,467.11 -75.33,702.51 -0.34,169.75 -18.79,288.66 -55.36,356.7 -36.56,68.05 -107.95,114.4 -214.15,139.03 -106.2,24.63 -193.08,4.16 -260.64,-61.4 -67.55,-65.56 -128.57,-176.86 -183.04,-333.91 -54.48,-157.04 -117.87,-391.44 -190.17,-703.19 -122.37,-527.6 -195.95,-1089.97 -220.73,-1687.12 -24.78,-597.15 23.08,-1114.59 143.59,-1552.29 120.5,-437.71 328.07,-690.73 622.7,-759.06 157.59,-36.55 300.9,1.5 429.93,114.18 129.02,112.67 218.56,276.93 268.62,492.76 80.25,346.02 62.43,728.32 -53.49,1146.92 -115.91,418.59 -344.09,929.1 -684.52,1531.54 31.04,180.52 68.42,365 112.12,553.43 65.11,-466.37 181.43,-820.99 348.94,-1063.81 167.52,-242.83 343.77,-385.7 528.76,-428.6 171.31,-39.73 322.71,-13.47 454.21,78.77 131.51,92.24 217.13,224.02 256.86,395.31 43.7,188.43 35.86,372.56 -23.51,552.4 -59.38,179.84 -191.24,358.44 -395.59,535.8 35.15,89.33 94.4,154.11 177.74,194.35 83.35,40.22 174.69,48.83 274.05,25.78 106.2,-24.63 199.43,-89.57 279.71,-194.84 80.29,-105.26 178.69,-272.5 295.21,-501.69 29.98,-57.51 70.67,-92.21 122.06,-104.13zm-2381.02 -2794.4c-61.66,14.3 -109.72,118.4 -144.17,312.32 -34.45,193.92 -52.02,448.9 -52.73,764.96 -0.7,316.06 17.6,655.69 54.9,1018.88 154.4,-299.36 266.81,-612.44 337.22,-939.25 70.42,-326.8 77.81,-610.12 22.19,-849.93 -25.43,-109.63 -56.89,-190.78 -94.38,-243.45 -37.48,-52.69 -78.49,-73.86 -123.03,-63.53z"/>
   <path class="fil0" d="M13241.68 22192.45c78.28,58.15 118.23,145.18 119.84,261.1l37.1 1707.92c5.22,192.83 -37.4,350.13 -127.85,471.9 -90.45,121.76 -207.16,190.28 -350.1,205.57 -142.95,15.28 -268.78,-17.46 -377.5,-98.22 -73.93,-54.92 -127.36,-128.35 -160.28,-220.29 -32.93,-91.95 -36.66,-195.94 -11.18,-311.99l401.25 -1807.44c11.68,-52.06 33.67,-99.83 65.98,-143.32 48.45,-65.23 112.47,-103.72 192.05,-115.46 79.58,-11.74 149.81,5 210.69,50.23z"/>
   <path class="fil0" d="M9569.08 19464.25c-78.28,-58.15 -173.14,-71.26 -284.59,-39.33l-1645.85 457.74c-186.13,50.69 -324.41,136.92 -414.87,258.68 -90.45,121.76 -122.35,253.28 -95.7,394.55 26.66,141.27 94.34,252.29 203.06,333.05 73.92,54.92 159.65,84.86 257.19,89.83 97.54,4.97 198.18,-21.49 301.92,-79.4l1614.54 -906.14c46.47,-26.22 85.86,-61.07 118.16,-104.56 48.46,-65.23 66.82,-137.64 55.07,-217.21 -11.73,-79.58 -48.05,-141.99 -108.93,-187.21z"/>
   <path class="fil0" d="M10658 21530.67c-97.15,-8.49 -184.81,30.06 -262.98,115.67l-1161.76 1252.47c-131.94,140.72 -204.52,286.64 -217.73,437.75 -13.21,151.1 28.55,279.83 125.3,386.17 96.74,106.34 212.56,165.41 347.48,177.21 91.75,8.02 180.45,-11.41 266.12,-58.3 85.67,-46.89 157.51,-122.17 215.52,-225.87l900.06 -1617.93c25.84,-46.68 41.11,-97.01 45.83,-150.98 7.08,-80.95 -15.24,-152.23 -66.95,-213.85 -51.71,-61.62 -115.34,-95.73 -190.89,-102.34z"/>
   <path class="fil1 str0" d="M26858.9 15090.86c584.64,-136.06 1888.59,1993.69 1501.57,2452.54 -354.64,420.45 -2777.72,2361.67 -3200.44,2172.09 -222.69,-89.92 -677.24,-438.33 -1142.86,-1198.84 -465.63,-760.51 -569.24,-1323.78 -548.07,-1563 23.36,-462.69 2854.08,-1738.12 3389.8,-1862.79zm-39.54 611.88l0 0c67.25,109.84 41.97,248.87 -56.16,308.96l-1998.52 1223.58c-98.13,60.09 -233.45,19.38 -300.7,-90.45l0 -0.01c-67.26,-109.85 -41.98,-248.87 56.15,-308.96l1998.52 -1223.59c98.14,-60.08 233.45,-19.37 300.71,90.47zm978.17 1597.68l0 -0.01c-67.25,-109.84 -202.57,-150.54 -300.7,-90.45l-1998.52 1223.58c-98.13,60.08 -123.41,199.12 -56.16,308.95l0 0.01c67.26,109.84 202.57,150.55 300.71,90.45l1998.52 -1223.58c98.13,-60.08 123.41,-199.1 56.15,-308.95zm-489.09 -798.85l0 0c-67.25,-109.84 -202.56,-150.55 -300.71,-90.46l-1998.5 1223.58c-98.15,60.1 -123.42,199.12 -56.17,308.96l0 0c67.25,109.84 202.57,150.56 300.7,90.47l1998.52 -1223.59c98.14,-60.09 123.41,-199.11 56.16,-308.96z"/>
   <path class="fil1" d="M24953.07 17943.66l-0.01 -0.01c-67.25,-109.84 -393.87,-33.42 -725.85,169.84l-6760.3 4138.99c-331.98,203.25 -548.57,459.41 -481.32,569.25l0.01 0.01c67.25,109.84 393.87,33.41 725.85,-169.84l6760.3 -4138.99c331.98,-203.26 548.57,-459.41 481.32,-569.25z"/>
   <path class="fil1" d="M18435.57 21588.2l307.97 503.02c51.98,84.91 25.05,196.89 -59.84,248.87l-2358.46 1443.96c-84.9,51.98 -196.88,25.05 -248.86,-59.86l-307.98 -503.02c-51.98,-84.9 -25.05,-196.88 59.85,-248.86l2358.46 -1443.97c84.89,-51.97 196.87,-25.04 248.86,59.86z"/>
  </g>
 </g>
</svg>
